# xmcd
#
# Track frame offsets:
#	150
#	51003
#	92748
#	124204
#	171451
#	213589
#
# Disc length: 3369 seconds
#
# Revision: 0
# Processed by: cddbd v1.5.2PL0 Copyright (c) Steve Scherf et al.
# Submitted via: EZCDAudioConverter 7.0.6.1
#
DISCID=550d2706
DTITLE=Phill Musra Group - Creator Spaces
DYEAR=1900
DGENRE=
TTITLE0=Egypt
TTITLE1=Arabia
TTITLE2=The Creator Is So Far Out
TTITLE3=The Creator Spaces
TTITLE4=The Creator Is So Far Out [Unreleased Version]
TTITLE5=Phyllis
EXTD=
EXTT0=
EXTT1=
EXTT2=
EXTT3=
EXTT4=
EXTT5=
PLAYORDER=
